<svg width="234" height="77" viewBox="0 0 234 77" fill="none" xmlns="http://www.w3.org/2000/svg">
<g clip-path="url(#clip0_1029_102)">
<path d="M55.5935 58.9307C55.5935 62.6958 52.2925 65.7496 48.2648 65.7496H42.3123C38.1884 65.7496 34.1607 66.9401 30.6816 69.2292L30.4987 69.3695L30.3159 69.2292C26.832 66.9449 22.7995 65.7399 18.6852 65.7496H12.7327C8.70498 65.7496 5.40392 62.6958 5.40392 58.9307V6.19912H44.42V0.619141H0V58.9307C0 65.798 5.67821 71.3295 12.6845 71.3295H18.637C26.2401 71.3295 30.4506 76.6191 30.4506 76.6191C30.4506 76.6191 34.6611 71.3295 42.2642 71.3295H48.2167C55.223 71.3295 60.9012 65.7496 60.9012 58.9307V17.8334H55.5454V58.9307H55.5935ZM33.155 36.4752H27.7992V61.7957H33.155V36.4752ZM19.2337 30.6581H13.8779V55.9785H19.2337V30.6581ZM47.0329 30.6581H41.6771V55.9785H47.0329V30.6581ZM47.081 0.619141V6.19912H51.7968L30.4987 23.5537L16.5775 12.2534L8.06017 19.1691V26.2735L16.5775 19.3578L30.4987 30.6581L55.5935 10.2014V15.0651H60.9493V0.619141H47.0762L47.081 0.619141Z" fill="white"/>
<path d="M96.5633 13.8164C98.7575 13.8164 100.61 14.552 102.126 16.0184C103.637 17.4848 104.397 19.2415 104.397 21.2838C104.397 23.3261 103.637 25.0828 102.121 26.5492C100.601 28.0156 98.7527 28.7512 96.5681 28.7512C95.8029 28.7512 95.0763 28.6544 94.3834 28.4608C93.6905 28.2672 93.1178 28.0301 92.6703 27.7543C92.2228 27.4784 91.8282 27.2025 91.4962 26.9267C91.1641 26.6508 90.9187 26.4137 90.7696 26.2104L90.553 25.9249L92.7569 23.5003C92.7954 23.5535 92.8532 23.6213 92.9253 23.7036C93.0023 23.7858 93.1611 23.931 93.4114 24.144C93.6616 24.3569 93.9214 24.5408 94.1957 24.7005C94.47 24.8602 94.8213 25.0054 95.2496 25.1361C95.6778 25.2619 96.1157 25.3297 96.5681 25.3297C97.5016 25.3297 98.286 25.0974 98.9163 24.6328C99.5467 24.1633 100.004 23.5923 100.283 22.9099H94.7684V19.6771H100.283C100.004 18.9947 99.5467 18.4188 98.9212 17.959C98.2956 17.4945 97.5112 17.2622 96.5681 17.2622C96.1398 17.2622 95.7163 17.3251 95.3169 17.4557C94.9127 17.5864 94.5711 17.7364 94.2968 17.9106C94.0225 18.0849 93.7819 18.2591 93.5702 18.4333C93.3632 18.6075 93.2093 18.7527 93.1178 18.8737L92.959 19.0818L90.6444 16.6572C90.6974 16.5798 90.7744 16.4733 90.8754 16.3475C90.9765 16.2217 91.2075 15.9942 91.5732 15.6748C91.9341 15.3505 92.3287 15.065 92.7473 14.8182C93.166 14.5665 93.7193 14.3439 94.4075 14.1358C95.0908 13.9326 95.8126 13.8309 96.5633 13.8309" fill="white"/>
<path d="M112.121 23.0021L110.614 24.7152V28.3497H106.803V14.2231H110.614V19.6725L115.229 14.2231H119.647L114.628 20.0741L120.046 28.3497H115.629L112.121 23.0021Z" fill="white"/>
<path d="M133.212 16.0184C134.732 17.4848 135.488 19.2415 135.488 21.2838C135.488 23.3261 134.728 25.0828 133.212 26.5492C131.691 28.0156 129.843 28.7512 127.663 28.7512C125.484 28.7512 123.636 28.0156 122.12 26.5492C120.599 25.0828 119.844 23.3261 119.844 21.2838C119.844 19.2415 120.604 17.4848 122.12 16.0184C123.641 14.5472 125.488 13.8164 127.663 13.8164C129.839 13.8164 131.691 14.552 133.212 16.0184ZM124.877 18.4043C124.127 19.1689 123.751 20.132 123.751 21.2886C123.751 22.4453 124.127 23.4084 124.877 24.173C125.628 24.9425 126.562 25.3248 127.668 25.3248C128.775 25.3248 129.709 24.9425 130.454 24.173C131.2 23.4035 131.576 22.4405 131.576 21.2886C131.576 20.1368 131.2 19.1689 130.454 18.4043C129.704 17.6396 128.775 17.2573 127.668 17.2573C126.562 17.2573 125.628 17.6396 124.877 18.4043Z" fill="white"/>
<path d="M150.636 14.2231V28.3497H146.825V22.9053H141.71V28.3497H137.899V14.2231H141.71V19.474H146.825V14.2231H150.636Z" fill="white"/>
<path d="M166.415 16.0184C167.931 17.4848 168.691 19.2415 168.691 21.2838C168.691 23.3261 167.931 25.0828 166.415 26.5492C164.894 28.0156 163.046 28.7512 160.867 28.7512C158.687 28.7512 156.839 28.0156 155.323 26.5492C153.802 25.0828 153.047 23.3261 153.047 21.2838C153.047 19.2415 153.807 17.4848 155.323 16.0184C156.844 14.5472 158.692 13.8164 160.867 13.8164C163.042 13.8164 164.894 14.552 166.415 16.0184ZM158.08 18.4043C157.33 19.1689 156.954 20.132 156.954 21.2886C156.954 22.4453 157.33 23.4084 158.08 24.173C158.831 24.9425 159.765 25.3248 160.871 25.3248C161.978 25.3248 162.912 24.9425 163.658 24.173C164.403 23.4035 164.779 22.4405 164.779 21.2886C164.779 20.1368 164.403 19.1689 163.658 18.4043C162.907 17.6396 161.978 17.2573 160.871 17.2573C159.765 17.2573 158.831 17.6396 158.08 18.4043Z" fill="white"/>
<path d="M178.82 24.9233L174.913 19.9773V28.3497H171.102V14.2231H174.514L178.82 19.7789L183.142 14.2231H186.553V28.3497H182.742V19.9773L178.82 24.9233Z" fill="white"/>
<path d="M189.758 14.2231H193.569V22.0971L199.584 14.2231H202.895V28.3497H199.084V20.4807L193.05 28.3497H189.758V14.2231Z" fill="white"/>
<path d="M211.432 23.0021L209.921 24.7152V28.3497H206.109V14.2231H209.921V19.6725L214.535 14.2231H218.953L213.934 20.0741L219.357 28.3497H214.935L211.432 23.0021Z" fill="white"/>
<path d="M228.88 25.325H224.265L223.264 28.3497H219.15L224.472 14.2183H228.683L234.005 28.3497H229.891L228.88 25.325ZM227.879 22.3003L226.575 18.1625L225.271 22.3003H227.874H227.879Z" fill="white"/>
<path d="M98.2667 48.3174L94.3593 43.3714V51.7438H90.5482V37.6172H93.9599L98.2667 43.173L102.588 37.6172H106V51.7438H102.189V43.3714L98.2667 48.3174Z" fill="white"/>
<path d="M121.769 39.4129C123.285 40.8793 124.045 42.6361 124.045 44.6783C124.045 46.7206 123.285 48.4774 121.769 49.9437C120.248 51.4101 118.4 52.1457 116.22 52.1457C114.041 52.1457 112.193 51.4101 110.677 49.9437C109.156 48.4774 108.401 46.7206 108.401 44.6783C108.401 42.6361 109.161 40.8793 110.677 39.4129C112.198 37.9465 114.045 37.2109 116.22 37.2109C118.395 37.2109 120.248 37.9465 121.769 39.4129ZM113.434 41.7988C112.684 42.5635 112.308 43.5265 112.308 44.6783C112.308 45.8301 112.684 46.798 113.434 47.5675C114.185 48.337 115.118 48.7193 116.225 48.7193C117.332 48.7193 118.266 48.337 119.011 47.5675C119.757 46.798 120.133 45.835 120.133 44.6783C120.133 43.5217 119.757 42.5586 119.011 41.7988C118.266 41.0342 117.332 40.6518 116.225 40.6518C115.118 40.6518 114.185 41.0342 113.434 41.7988Z" fill="white"/>
<path d="M130.608 41.7988C129.843 42.5635 129.463 43.5265 129.463 44.6783C129.463 45.8301 129.843 46.798 130.608 47.5675C131.374 48.337 132.331 48.7193 133.476 48.7193C134.189 48.7193 134.862 48.5693 135.497 48.2644C136.133 47.9644 136.59 47.6595 136.869 47.3498L137.292 46.8948L139.496 49.3194C139.443 49.3969 139.366 49.5033 139.265 49.6292C139.164 49.755 138.928 49.9825 138.558 50.3067C138.192 50.631 137.793 50.9213 137.365 51.1681C136.936 51.4198 136.368 51.6424 135.671 51.8457C134.968 52.0441 134.237 52.1457 133.481 52.1457C131.301 52.1457 129.449 51.4101 127.933 49.9437C126.412 48.4774 125.657 46.7206 125.657 44.6783C125.657 42.6361 126.417 40.8793 127.933 39.4129C129.454 37.9465 131.301 37.2109 133.481 37.2109C134.232 37.2109 134.949 37.3077 135.627 37.5061C136.306 37.6997 136.869 37.9417 137.307 38.2176C137.75 38.4934 138.134 38.7693 138.462 39.0451C138.794 39.321 139.03 39.5581 139.174 39.7565L139.4 40.0421L137.085 42.4667C137.047 42.4134 136.994 42.3457 136.931 42.2634C136.864 42.1811 136.715 42.036 136.479 41.8279C136.243 41.6198 135.998 41.4358 135.743 41.2761C135.488 41.1164 135.156 40.9713 134.737 40.8406C134.323 40.7148 133.905 40.647 133.476 40.647C132.326 40.647 131.369 41.0293 130.608 41.794" fill="white"/>
<path d="M146.825 46.3961L145.314 48.1093V51.7438H141.503V37.6172H145.314V43.0665L149.929 37.6172H154.346L149.332 43.4682L154.75 51.7438H150.333L146.825 46.3961Z" fill="white"/>
<path d="M162.873 51.7437H156.156V37.6123H162.474C163.917 37.6123 165.082 37.9849 165.963 38.7254C166.843 39.4658 167.286 40.3418 167.286 41.3484C167.286 41.7356 167.223 42.1034 167.098 42.4567C166.973 42.81 166.824 43.0907 166.646 43.2988C166.468 43.5069 166.295 43.6908 166.121 43.8456C165.948 44.0005 165.794 44.1118 165.664 44.1747L165.477 44.2715C165.544 44.2957 165.631 44.3344 165.746 44.3828C165.857 44.4312 166.059 44.5474 166.347 44.7264C166.636 44.9055 166.886 45.1136 167.113 45.341C167.334 45.5733 167.531 45.8879 167.714 46.2896C167.892 46.6913 167.984 47.1268 167.984 47.6011C167.984 48.7045 167.507 49.6724 166.55 50.5C165.592 51.3275 164.365 51.7437 162.868 51.7437M162.065 40.6515H159.962V43.0665H162.065C162.464 43.0665 162.782 42.9551 163.018 42.7374C163.253 42.5196 163.369 42.2244 163.369 41.8614C163.369 41.4984 163.253 41.2032 163.018 40.9855C162.782 40.7628 162.464 40.6564 162.065 40.6564M159.962 48.7287H162.565C163.013 48.7287 163.374 48.5932 163.653 48.327C163.932 48.056 164.071 47.7221 164.071 47.3156C164.071 46.909 163.932 46.5751 163.653 46.3041C163.369 46.0331 163.008 45.9024 162.565 45.9024H159.962V48.7287Z" fill="white"/>
<path d="M176.511 51.7442H170.399V37.6128H174.21V41.8473H176.511C178.055 41.8473 179.306 42.3168 180.278 43.2508C181.25 44.1848 181.736 45.3657 181.736 46.7933C181.736 48.221 181.25 49.397 180.278 50.3359C179.311 51.2699 178.055 51.7393 176.511 51.7393M174.21 48.313H176.318C176.761 48.313 177.141 48.1629 177.454 47.858C177.766 47.558 177.925 47.2047 177.925 46.7982C177.925 46.3917 177.771 46.0432 177.454 45.7383C177.141 45.4383 176.761 45.2834 176.318 45.2834H174.21V48.3081V48.313ZM186.948 51.7393H183.137V37.6079H186.948V51.7393Z" fill="white"/>
</g>
<defs>
<clipPath id="clip0_1029_102">
<rect width="234" height="76" fill="white" transform="translate(0 0.619141)"/>
</clipPath>
</defs>
</svg>
